HIERARCHY
ROOT Spine1
{
	OFFSET 0.000000 0.000000 0.000000
	CHANNELS 6 Xposition Yposition Zposition Yrotation Zrotation Xrotation
	JOINT ShoulderCenter
	{
		OFFSET -0.279778 18.634689 -0.311875
		CHANNELS 3 Yrotation Zrotation Xrotation
		JOINT Head
		{
			OFFSET 0.595465 18.120295 -1.545906
			CHANNELS 3 Yrotation Zrotation Xrotation
			End Site
			{
				OFFSET 0.000000 0.000000 0.000000
			}
		}
	}
	JOINT ShoulderCenterRight
	{
		OFFSET -0.279778 18.634689 -0.311875
		CHANNELS 3 Yrotation Zrotation Xrotation
		JOINT RightShoulder
		{
			OFFSET 17.562130 -12.035134 -1.532722
			CHANNELS 3 Yrotation Zrotation Xrotation
			JOINT RightElbow
			{
				OFFSET 9.033963 -25.845810 1.698232
				CHANNELS 3 Yrotation Zrotation Xrotation
				JOINT RightWrist
				{
					OFFSET 5.035375 -21.783009 -5.845833
					CHANNELS 3 Yrotation Zrotation Xrotation
					JOINT RightHand
					{
						OFFSET -1.053756 -8.369682 -2.558780
						CHANNELS 3 Yrotation Zrotation Xrotation
						End Site
						{
							OFFSET 0.000000 0.000000 0.000000
						}
					}
				}
			}
		}
	}
	JOINT ShoulderCenterLeft
	{
		OFFSET -0.279778 18.634689 -0.311875
		CHANNELS 3 Yrotation Zrotation Xrotation
		JOINT LeftShoulder
		{
			OFFSET -16.681293 -13.220477 -3.409553
			CHANNELS 3 Yrotation Zrotation Xrotation
			JOINT LeftElbow
			{
				OFFSET -9.236145 -22.532917 5.516505
				CHANNELS 3 Yrotation Zrotation Xrotation
				JOINT LeftWrist
				{
					OFFSET -5.256438 -22.612366 -10.389209
					CHANNELS 3 Yrotation Zrotation Xrotation
					JOINT LeftHand
					{
						OFFSET 0.617352 -7.744606 -1.188421
						CHANNELS 3 Yrotation Zrotation Xrotation
						End Site
						{
							OFFSET 0.000000 0.000000 0.000000
						}
					}
				}
			}
		}
	}
	JOINT Spine
	{
		OFFSET 0.279778 -18.634686 0.311899
		CHANNELS 3 Yrotation Zrotation Xrotation
		JOINT HipCenterRight
		{
			OFFSET 0.414468 -6.592295 -5.606747
			CHANNELS 3 Yrotation Zrotation Xrotation
			JOINT RightHip
			{
				OFFSET 7.841097 -7.644472 0.161052
				CHANNELS 3 Yrotation Zrotation Xrotation
				JOINT RightKnee
				{
					OFFSET 3.400716 -49.365768 7.996106
					CHANNELS 3 Yrotation Zrotation Xrotation
					JOINT RightAnkle
					{
						OFFSET 0.881244 -34.600197 1.931334
						CHANNELS 3 Yrotation Zrotation Xrotation
						JOINT RightFoot
						{
							OFFSET 2.352630 -5.482430 -4.730678
							CHANNELS 3 Yrotation Zrotation Xrotation
							End Site
							{
								OFFSET 0.000000 0.000000 0.000000
							}
						}
					}
				}
			}
		}
		JOINT HipCenterLeft
		{
			OFFSET 0.414468 -6.592295 -5.606747
			CHANNELS 3 Yrotation Zrotation Xrotation
			JOINT LeftHip
			{
				OFFSET -7.487789 -7.809803 -2.387071
				CHANNELS 3 Yrotation Zrotation Xrotation
				JOINT LeftKnee
				{
					OFFSET -6.239526 -47.269646 8.046913
					CHANNELS 3 Yrotation Zrotation Xrotation
					JOINT LeftAnkle
					{
						OFFSET -0.152031 -37.003647 2.846551
						CHANNELS 3 Yrotation Zrotation Xrotation
						JOINT LeftFoot
						{
							OFFSET -2.340865 -6.240869 -6.141472
							CHANNELS 3 Yrotation Zrotation Xrotation
							End Site
							{
								OFFSET 0.000000 0.000000 0.000000
							}
						}
					}
				}
			}
		}
	}
}
MOTION
Frames: 12
Frame Time: 0.033333
0.000000 0.000000 0.000000 0.000000 0.000000 0.000000 0.000000 0.000000 0.000000 0.0 0.0 0.0 0.000000 0.000000 0.000000 0.000000 0.000000 0.000000 0.000000 0.000000 0.000000 0.000000 0.000000 0.000000 0.0 0.0 0.0 0.000000 0.000000 0.000000 0.000000 0.000000 0.000000 0.000000 0.000000 0.000000 0.000000 0.000000 0.000000 0.0 0.0 0.0 0.000000 0.000000 0.000000 0.000000 0.000000 0.000000 0.000000 0.000000 0.000000 0.000000 0.000000 0.000000 0.000000 0.000000 0.000000 0.0 0.0 0.0 0.000000 0.000000 0.000000 0.000000 0.000000 0.000000 0.000000 0.000000 0.000000 0.000000 0.000000 0.000000 0.0 0.0 0.0 
0.010556 -0.003198 -0.010633 0.000120 0.010716 -0.003986 -0.015210 -0.216633 -0.105693 0.0 0.0 0.0 -0.080169 0.060564 -0.049632 0.028588 0.168440 0.050298 0.054876 -0.416283 -0.241757 -0.115511 0.081349 0.714237 0.0 0.0 0.0 0.000368 -0.011250 0.002008 -0.010228 -0.021157 0.012322 0.043962 -0.223864 0.255772 -0.065995 0.467722 0.076769 0.0 0.0 0.0 -0.063068 0.073721 -0.005924 -0.000013 -0.000021 -0.000012 -0.018145 -0.120697 0.020064 -0.038364 -0.380818 -0.593882 -0.194404 0.570331 0.705356 0.0 0.0 0.0 0.000306 -0.025370 0.007770 -0.007514 -0.052144 -0.010364 -0.001735 -0.026819 -0.084700 -0.461519 1.103905 -1.603173 0.0 0.0 0.0 
0.079337 0.036731 -0.040674 -0.000932 -0.024935 -0.033766 -0.000964 0.006345 0.045731 0.0 0.0 0.0 -0.203266 -0.085010 -0.146814 0.108115 0.650427 0.189540 0.264343 -0.898082 0.099336 -0.062927 0.723192 -1.194393 0.0 0.0 0.0 -0.115066 0.102055 0.070372 -0.040941 -0.490736 -0.195481 0.189260 -1.349453 1.960908 -0.454329 1.118380 -4.070010 0.0 0.0 0.0 -0.142455 0.164288 -0.044963 0.081930 -0.062950 0.081171 -0.020981 -0.126447 -0.007153 -0.039168 -0.381159 -0.621051 -0.832737 0.972362 0.022523 0.0 0.0 0.0 0.063399 -0.088886 -0.037777 -0.036223 -0.116647 0.124959 0.005541 0.065653 -0.104690 -0.370158 0.996799 -1.575193 0.0 0.0 0.0 
0.101194 0.069928 -0.029945 -0.000835 -0.040798 -0.009879 0.002366 0.000015 -0.071965 0.0 0.0 0.0 -0.173880 -0.183634 -0.135333 0.104066 0.745940 0.159828 0.244885 -0.842953 0.079791 -0.146247 1.551406 -2.344134 0.0 0.0 0.0 -0.323591 0.265876 0.202375 -0.104118 -1.735673 -0.814859 -0.165959 -1.780205 4.516934 0.458316 -7.354688 -4.627396 0.0 0.0 0.0 -0.205189 0.236086 -0.073736 0.219581 -0.104008 0.216227 -0.036317 -0.154716 -0.160193 -0.028952 -0.267739 -0.503547 -0.639128 0.591443 -0.303879 0.0 0.0 0.0 0.189281 -0.143189 -0.151814 -0.073810 -0.193801 0.313385 0.000345 0.006198 0.031712 0.699275 0.490463 -3.167867 0.0 0.0 0.0 
0.131011 0.120556 -0.006962 0.000206 -0.020838 0.036448 0.011726 0.045394 -0.236083 0.0 0.0 0.0 -0.316824 0.066769 -0.211240 0.161623 0.190385 0.428488 0.327227 -0.580304 0.725230 0.371492 2.431825 -7.625860 0.0 0.0 0.0 -0.469902 0.214186 0.328752 -0.633125 -3.955832 -0.921571 1.000331 -5.184826 7.599008 0.041175 -5.832810 -6.529980 0.0 0.0 0.0 -0.297447 0.345159 -0.066469 0.270408 -0.091393 0.265527 -0.075695 -0.347959 -0.268625 -0.026491 -0.085215 -0.828765 0.026325 0.359028 0.788585 0.0 0.0 0.0 0.252908 -0.285104 -0.172837 -0.076390 -0.216412 0.304085 0.003543 0.045763 -0.005070 0.933636 0.091788 -2.783763 0.0 0.0 0.0 
0.180683 0.167620 -0.021172 0.001891 0.054471 0.067349 -0.011282 -0.191452 -0.162023 0.0 0.0 0.0 -0.423774 0.343262 -0.259799 0.195310 -0.322352 0.615162 0.310485 -0.416678 0.844583 0.413143 2.702378 -8.346452 0.0 0.0 0.0 0.474137 -0.891869 -0.191125 -2.325380 -6.444829 1.986288 2.153823 -7.214205 7.430833 1.291688 -7.427029 1.073709 0.0 0.0 0.0 -0.020794 0.024015 -0.005915 0.199317 0.160786 0.191005 -0.095561 -0.418899 -0.381586 -0.023532 -0.125741 -0.621333 -0.568181 0.718794 0.128017 0.0 0.0 0.0 0.209243 -0.124064 -0.178770 -0.058423 -0.150217 0.251460 0.000348 0.001462 -0.057108 0.665632 0.388213 -2.812298 0.0 0.0 0.0 
0.295022 0.255451 0.016665 0.001852 -0.036220 0.160353 -0.009656 -0.299363 -0.525246 0.0 0.0 0.0 -0.146022 0.000436 -0.100040 0.008424 0.042439 0.016136 0.512921 -0.555681 1.535970 0.411754 3.413619 -9.404500 0.0 0.0 0.0 0.634569 -0.959082 -0.303935 -4.792512 -11.485431 5.933892 2.653146 -6.192583 1.357459 0.938923 -5.145098 1.209266 0.0 0.0 0.0 0.076037 -0.097587 -0.108210 0.193679 0.301015 0.182605 -0.087675 -0.374834 -0.373258 -0.022999 -0.194232 -0.447401 -1.082777 0.999709 -0.524212 0.0 0.0 0.0 0.141234 0.074772 -0.171187 -0.053202 -0.127381 0.240885 -0.003538 -0.044932 0.021827 -1.035797 1.048037 0.020363 0.0 0.0 0.0 
0.390047 0.328726 0.091720 0.002997 -0.200277 0.378769 -0.003855 -0.508843 -1.391894 0.0 0.0 0.0 0.221746 -0.512161 0.107904 -0.139993 1.022390 -0.606808 0.699397 -1.026530 1.759313 -0.596086 5.354095 -5.954179 0.0 0.0 0.0 0.582358 -0.774933 -0.301136 -6.645339 -19.252995 6.327455 1.523052 -4.185047 2.177986 3.400444 -14.509830 5.655079 0.0 0.0 0.0 0.099221 -0.137259 -0.270196 0.414271 0.516255 0.393169 -0.127501 -0.455231 -0.736556 -0.020478 -0.191458 -0.360656 -1.436533 1.366827 -0.614674 0.0 0.0 0.0 0.210233 0.228062 -0.291962 -0.064717 -0.093555 0.372149 -0.005292 -0.072338 -0.078354 -0.705995 0.601137 0.299757 0.0 0.0 0.0 
0.453244 0.366539 0.074029 0.002850 -0.235084 0.397556 -0.096025 -1.296783 -0.682199 0.0 0.0 0.0 0.271004 -0.520985 0.141011 -0.184030 1.293475 -0.792941 0.862791 -1.380306 2.017366 -0.681238 5.922529 -6.271657 0.0 0.0 0.0 1.110908 -1.244205 -0.620643 -8.250854 -24.208237 8.546160 2.447117 -5.307539 0.108710 0.804260 -10.491931 -4.657479 0.0 0.0 0.0 0.290787 -0.357401 -0.192604 0.644587 0.785599 0.612030 -0.160958 -0.475174 -1.147021 -0.029377 -0.359997 -0.324367 -1.699179 1.343167 -1.314096 0.0 0.0 0.0 0.379192 0.164697 -0.448349 -0.034993 0.233825 0.558317 -0.008569 -0.120939 -0.241040 -0.874504 0.755559 0.342115 0.0 0.0 0.0 
0.587678 0.436479 0.050950 0.000198 -0.462987 0.417079 -0.061361 -0.826851 -0.359193 0.0 0.0 0.0 0.231745 -0.717564 0.097203 -0.133280 1.987098 -0.791672 0.970071 -1.798907 1.969877 -0.780358 5.979488 -5.789408 0.0 0.0 0.0 1.576112 -1.728295 -0.885199 -9.752459 -29.593756 10.438566 4.341774 -8.743006 -1.745150 0.717712 -5.516731 -0.983464 0.0 0.0 0.0 0.353138 -0.432254 -0.208053 0.664019 0.964293 0.627195 -0.142253 -0.342384 -1.204550 -0.023920 -0.306507 -0.241981 -1.439273 0.894118 -1.615070 0.0 0.0 0.0 0.383593 0.345022 -0.510177 -0.022668 0.371436 0.635386 -0.008185 -0.122484 -0.407609 -1.079471 0.834794 0.666263 0.0 0.0 0.0 
0.889352 0.489575 0.052166 -0.003612 -0.971963 0.538606 0.065781 0.480138 -0.669197 0.0 0.0 0.0 0.350659 -1.095865 0.147011 -0.126846 2.928210 -0.981799 0.952948 -1.658614 2.061406 -1.089795 6.838694 -5.274116 0.0 0.0 0.0 1.837189 -1.966709 -1.040129 -10.982324 -34.892147 10.794735 6.233278 -12.855934 -1.524333 2.320212 -6.310583 9.844543 0.0 0.0 0.0 0.351824 -0.439243 -0.312607 0.598659 1.290920 0.556560 -0.117974 -0.213589 -1.175852 -0.019129 -0.231499 -0.225750 -1.512423 0.813669 -1.962132 0.0 0.0 0.0 0.257614 0.641991 -0.472378 0.038086 0.605769 0.473356 -0.014121 -0.192856 -0.295745 -1.220801 1.049712 0.486456 0.0 0.0 0.0 
1.137692 0.549248 0.184822 0.002701 -1.265963 0.916634 0.103699 0.314893 -2.153029 0.0 0.0 0.0 0.656754 -1.296630 0.341516 -0.314789 3.254525 -1.635608 0.888245 -1.174260 2.362094 -0.723791 5.739727 -5.770746 0.0 0.0 0.0 1.810042 -2.280231 -0.950525 -12.411929 -40.775101 11.668069 7.071551 -13.785046 -6.212751 5.107526 -9.493613 21.470922 0.0 0.0 0.0 0.384492 -0.485284 -0.402245 0.574668 1.404426 0.530764 -0.113884 -0.063149 -1.489277 -0.015823 -0.226521 -0.115831 -1.786923 1.145493 -1.949553 0.0 0.0 0.0 0.343825 0.869980 -0.634151 0.063449 0.661671 0.356451 -0.014563 -0.202633 -0.439545 -0.567463 0.270880 0.788336 0.0 0.0 0.0 
